<svg xmlns="http://www.w3.org/2000/svg" class="ts-chart" width="100%" height="100%" viewBox="0 0 288 192" role="img" aria-roledescription="chart" aria-label="Browser visitors donut" tabindex="-1" style="display:block;overflow:visible"><style data-tanstack-catalog-preview-theme="">:root{color-scheme:light;font-family:Inter,ui-sans-serif,system-ui,-apple-system,BlinkMacSystemFont,'Segoe UI',sans-serif;color:#172033;--panel:#ffffff;--panel-muted:#f7f8fb;--border:#dce1ea;--muted:#697386;--accent:#2563eb;--accent-muted:#e9f0ff;--ts-chart-1:#2563eb;--ts-chart-2:#f97316;--ts-chart-3:#10b981;--ts-chart-4:#8b5cf6;--ts-chart-5:#ec4899;--ts-chart-6:#06b6d4;}@media(prefers-color-scheme:dark){:root{color-scheme:dark;color:#edf2fb;--panel:#151a24;--panel-muted:#10151e;--border:#2b3342;--muted:#9aa6b9;--accent:#6ea8fe;--accent-muted:#172746;--ts-chart-1:#6ea8fe;--ts-chart-2:#ff9b65;--ts-chart-3:#4fd1a1;--ts-chart-4:#ae8cff;--ts-chart-5:#f679bc;--ts-chart-6:#4fd4e7;}}</style><g data-ts-key="marks" class="ts-chart__marks"><g data-ts-key="browser-donut" class="ts-chart__polar" aria-hidden="true" transform="translate(144 96)"><g data-ts-key="browser-arcs" class="ts-chart__arc" aria-hidden="true"><path data-ts-key="browser-arcs:object:null:string:6:chrome" fill="var(--ts-chart-1)" stroke-linejoin="round" d="M0,-65.588A7,7,0,0,1,7.743,-72.548A72.96,72.96,0,0,1,72.451,8.604A7,7,0,0,1,63.941,14.603L49.029,11.197A7,7,0,0,1,43.613,3.77A43.776,43.776,0,0,0,6.035,-43.358A7,7,0,0,1,0,-50.291Z" vector-effect="non-scaling-stroke"/><path data-ts-key="browser-arcs:object:null:string:6:safari" fill="var(--ts-chart-2)" stroke-linejoin="round" d="M63.151,17.709A7,7,0,0,1,67.763,27.044A72.96,72.96,0,0,1,7.14,72.61A7,7,0,0,1,-0.545,65.585L-0.418,50.289A7,7,0,0,1,5.675,43.407A43.776,43.776,0,0,0,40.118,17.518A7,7,0,0,1,48.423,13.579Z" vector-effect="non-scaling-stroke"/><path data-ts-key="browser-arcs:object:null:string:7:firefox" fill="var(--ts-chart-3)" stroke-linejoin="round" d="M-3.748,65.48A7,7,0,0,1,-11.876,71.987A72.96,72.96,0,0,1,-67.225,28.353A7,7,0,0,1,-62.796,18.931L-48.151,14.516A7,7,0,0,1,-39.771,18.293A43.776,43.776,0,0,0,-8.503,42.942A7,7,0,0,1,-2.874,50.209Z" vector-effect="non-scaling-stroke"/><path data-ts-key="browser-arcs:object:null:string:4:edge" fill="var(--ts-chart-4)" stroke-linejoin="round" d="M-63.646,15.841A7,7,0,0,1,-72.27,10.008A72.96,72.96,0,0,1,-51.911,-51.268A7,7,0,0,1,-41.511,-50.78L-31.83,-38.937A7,7,0,0,1,-32.114,-29.749A43.776,43.776,0,0,0,-43.532,4.615A7,7,0,0,1,-48.802,12.146Z" vector-effect="non-scaling-stroke"/><path data-ts-key="browser-arcs:object:null:string:5:other" fill="var(--ts-chart-5)" stroke-linejoin="round" d="M-38.981,-52.747A7,7,0,0,1,-36.89,-62.946A72.96,72.96,0,0,1,-11.278,-72.083A7,7,0,0,1,-3.204,-65.509L-2.457,-50.231A7,7,0,0,1,-8.146,-43.011A43.776,43.776,0,0,0,-20.915,-38.456A7,7,0,0,1,-29.89,-40.445Z" vector-effect="non-scaling-stroke"/></g></g><g data-ts-key="selected-browser" class="ts-chart__polar" aria-hidden="true" transform="translate(144 96)"><g data-ts-key="selected-browser-wedge" class="ts-chart__arc" aria-hidden="true"><path data-ts-key="selected-browser-wedge:object:null:string:6:chrome" fill="var(--ts-chart-1)" stroke="Canvas" stroke-width="1.5" stroke-linejoin="round" d="M0,-72.198A8,8,0,0,1,8.881,-80.149A80.64,80.64,0,0,1,80.115,9.187A8,8,0,0,1,70.386,16.075L53.618,12.246A8,8,0,0,1,47.425,3.806A47.578,47.578,0,0,0,6.848,-47.082A8,8,0,0,1,0,-54.999Z" vector-effect="non-scaling-stroke"/></g><g data-ts-key="selected-browser-ring" class="ts-chart__arc" aria-hidden="true"><path data-ts-key="selected-browser-ring:object:null:string:6:chrome" fill="var(--ts-chart-1)" fill-opacity="0.78" stroke-linejoin="round" d="M0,-78.183A2.419,2.419,0,0,1,2.494,-80.601A80.64,80.64,0,0,1,79.133,15.515A2.419,2.419,0,0,1,76.221,17.408L76.221,17.408A2.419,2.419,0,0,1,74.385,14.584A75.802,75.802,0,0,0,2.344,-75.765A2.419,2.419,0,0,1,0,-78.183Z" vector-effect="non-scaling-stroke"/></g></g><g data-ts-key="donut-center" class="ts-chart__polar" aria-hidden="true" transform="translate(144 96)"><g data-ts-key="donut-center-value" class="ts-chart__radial-text ts-chart__text" aria-hidden="true"><text data-ts-key="donut-center-value:object:null:string:12:chrome:value" fill="currentColor" x="0" y="-8" text-anchor="middle" dominant-baseline="middle" font-size="19" font-weight="760" font-family="inherit">275</text></g><g data-ts-key="donut-center-label" class="ts-chart__radial-text ts-chart__text" aria-hidden="true"><text data-ts-key="donut-center-label:object:null:string:12:chrome:label" fill="color-mix(in srgb, currentColor 56%, transparent)" x="0" y="12" text-anchor="middle" dominant-baseline="middle" font-size="8" font-weight="620" font-family="inherit">Chrome</text></g></g></g></svg>
