<svg xmlns="http://www.w3.org/2000/svg" class="ts-chart" width="100%" height="100%" viewBox="0 0 288 192" role="img" aria-roledescription="chart" aria-label="Total visitors for the last three months" tabindex="-1" direction="ltr" style="display:block;overflow:visible"><style data-tanstack-catalog-preview-theme="">:root{color-scheme:light;font-family:Inter,ui-sans-serif,system-ui,-apple-system,BlinkMacSystemFont,'Segoe UI',sans-serif;color:#172033;--panel:#ffffff;--panel-muted:#f7f8fb;--background:#ffffff;--foreground:#172033;--border:#dce1ea;--muted:#f7f8fb;--muted-foreground:#697386;--accent:#2563eb;--accent-muted:#e9f0ff;--ts-chart-1:#2563eb;--ts-chart-2:#f97316;--ts-chart-3:#10b981;--ts-chart-4:#8b5cf6;--ts-chart-5:#ec4899;--ts-chart-6:#06b6d4;}@media(prefers-color-scheme:dark){:root{color-scheme:dark;color:#edf2fb;--panel:#151a24;--panel-muted:#10151e;--background:#151a24;--foreground:#edf2fb;--border:#2b3342;--muted:#10151e;--muted-foreground:#9aa6b9;--accent:#6ea8fe;--accent-muted:#172746;--ts-chart-1:#6ea8fe;--ts-chart-2:#ff9b65;--ts-chart-3:#4fd1a1;--ts-chart-4:#ae8cff;--ts-chart-5:#f679bc;--ts-chart-6:#4fd4e7;}}</style><defs data-ts-key="gradients"><linearGradient data-ts-key="gradient:fill-mobile" id="fill-mobile" x1="0%" y1="100%" x2="0%" y2="0%"><stop data-ts-key="gradient:fill-mobile:stop:0" offset="5%" stop-color="var(--sd-primary, var(--ts-chart-1, #171717))" stop-opacity="0.1"/><stop data-ts-key="gradient:fill-mobile:stop:1" offset="95%" stop-color="var(--sd-primary, var(--ts-chart-1, #171717))" stop-opacity="0.8"/></linearGradient><linearGradient data-ts-key="gradient:fill-desktop" id="fill-desktop" x1="0%" y1="100%" x2="0%" y2="0%"><stop data-ts-key="gradient:fill-desktop:stop:0" offset="5%" stop-color="var(--sd-primary, var(--ts-chart-1, #171717))" stop-opacity="0.1"/><stop data-ts-key="gradient:fill-desktop:stop:1" offset="95%" stop-color="var(--sd-primary, var(--ts-chart-1, #171717))" stop-opacity="1"/></linearGradient></defs><g data-ts-key="marks" class="ts-chart__marks" clip-path="url(#ts-chart-clip-1oc5y5l)"><defs data-ts-key="marks:clip-defs"><clipPath id="ts-chart-clip-1oc5y5l"><rect x="5" y="5" width="278" height="152"/></clipPath></defs><g data-ts-key="visitor-areas" class="ts-chart__area" aria-hidden="true"><path data-ts-key="visitor-areas:string:6:mobile:segment:0" fill="url(#fill-mobile)" fill-opacity="0.6" stroke="var(--sd-primary, var(--ts-chart-1, #171717))" stroke-width="1" d="M5,138C6.03,134.996,7.059,131.993,8.089,134.2C9.119,136.407,10.148,143.825,11.178,141.8C12.207,139.775,13.237,128.308,14.267,124.067C15.296,119.825,16.326,122.809,17.356,120.267C18.385,117.724,19.415,109.656,20.444,113.933C21.474,118.211,22.504,134.833,23.533,134.2C24.563,133.567,25.593,115.678,26.622,116.467C27.652,117.256,28.681,136.723,29.711,143.067C30.741,149.41,31.77,142.63,32.8,132.933C33.83,123.237,34.859,110.625,35.889,112.667C36.919,114.708,37.948,131.404,38.978,130.4C40.007,129.396,41.037,110.693,42.067,108.867C43.096,107.04,44.126,122.089,45.156,129.133C46.185,136.177,47.215,135.215,48.244,135.467C49.274,135.718,50.304,137.182,51.333,132.933C52.363,128.684,53.393,118.722,54.422,111.4C55.452,104.078,56.481,99.396,57.511,105.067C58.541,110.737,59.57,126.76,60.6,134.2C61.63,141.64,62.659,140.498,63.689,138C64.719,135.502,65.748,131.648,66.778,131.667C67.807,131.685,68.837,135.576,69.867,135.467C70.896,135.357,71.926,131.247,72.956,127.867C73.985,124.486,75.015,121.835,76.044,120.267C77.074,118.698,78.104,118.211,79.133,125.333C80.163,132.456,81.193,147.187,82.222,140.533C83.252,133.88,84.281,105.842,85.311,103.8C86.341,101.758,87.37,125.714,88.4,134.2C89.43,142.686,90.459,135.704,91.489,126.6C92.519,117.496,93.548,106.27,94.578,108.867C95.607,111.463,96.637,127.882,97.667,129.133C98.696,130.385,99.726,116.469,100.756,117.733C101.785,118.998,102.815,135.442,103.844,132.933C104.874,130.425,105.904,108.964,106.933,103.8C107.963,98.636,108.993,109.768,110.022,107.6C111.052,105.432,112.081,89.964,113.111,91.133C114.141,92.302,115.17,110.108,116.2,119C117.23,127.892,118.259,127.869,119.289,130.4C120.319,132.931,121.348,138.017,122.378,134.2C123.407,130.383,124.437,117.662,125.467,115.2C126.496,112.738,127.526,120.534,128.556,122.8C129.585,125.066,130.615,121.802,131.644,126.6C132.674,131.398,133.704,144.259,134.733,136.733C135.763,129.208,136.793,101.296,137.822,94.933C138.852,88.571,139.881,103.757,140.911,108.867C141.941,113.976,142.97,109.008,144,106.333C145.03,103.659,146.059,103.278,147.089,103.8C148.119,104.322,149.148,105.748,150.178,112.667C151.207,119.585,152.237,131.997,153.267,134.2C154.296,136.403,155.326,128.398,156.356,127.867C157.385,127.336,158.415,134.279,159.444,139.267C160.474,144.254,161.504,147.285,162.533,141.8C163.563,136.315,164.593,122.316,165.622,120.267C166.652,118.218,167.681,128.12,168.711,129.133C169.741,130.147,170.77,122.272,171.8,125.333C172.83,128.395,173.859,142.393,174.889,135.467C175.919,128.54,176.948,100.688,177.978,98.733C179.007,96.778,180.037,120.719,181.067,132.933C182.096,145.147,183.126,145.634,184.156,140.533C185.185,135.433,186.215,124.746,187.244,121.533C188.274,118.32,189.304,122.581,190.333,127.867C191.363,133.152,192.393,139.463,193.422,131.667C194.452,123.87,195.481,101.967,196.511,105.067C197.541,108.166,198.57,136.267,199.6,136.733C200.63,137.199,201.659,110.03,202.689,108.867C203.719,107.704,204.748,132.547,205.778,139.267C206.807,145.986,207.837,134.582,208.867,125.333C209.896,116.085,210.926,108.992,211.956,110.133C212.985,111.275,214.015,120.651,215.044,116.467C216.074,112.282,217.104,94.537,218.133,96.2C219.163,97.863,220.193,118.933,221.222,131.667C222.252,144.401,223.281,148.799,224.311,138C225.341,127.201,226.37,101.206,227.4,103.8C228.43,106.394,229.459,137.578,230.489,140.533C231.519,143.488,232.548,118.214,233.578,108.867C234.607,99.519,235.637,106.099,236.667,112.667C237.696,119.235,238.726,125.791,239.756,117.733C240.785,109.675,241.815,87.002,242.844,91.133C243.874,95.264,244.904,126.199,245.933,135.467C246.963,144.734,247.993,132.335,249.022,120.267C250.052,108.199,251.081,96.462,252.111,100C253.141,103.538,254.17,122.351,255.2,130.4C256.23,138.449,257.259,135.733,258.289,122.8C259.319,109.867,260.348,86.715,261.378,89.867C262.407,93.018,263.437,122.472,264.467,134.2C265.496,145.928,266.526,139.928,267.556,132.933C268.585,125.938,269.615,117.948,270.644,108.867C271.674,99.785,272.704,89.613,273.733,94.933C274.763,100.253,275.793,121.066,276.822,131.667C277.852,142.268,278.881,142.657,279.911,136.733C280.941,130.809,281.97,118.571,283,106.333L283,157C281.97,157,280.941,157,279.911,157C278.881,157,277.852,157,276.822,157C275.793,157,274.763,157,273.733,157C272.704,157,271.674,157,270.644,157C269.615,157,268.585,157,267.556,157C266.526,157,265.496,157,264.467,157C263.437,157,262.407,157,261.378,157C260.348,157,259.319,157,258.289,157C257.259,157,256.23,157,255.2,157C254.17,157,253.141,157,252.111,157C251.081,157,250.052,157,249.022,157C247.993,157,246.963,157,245.933,157C244.904,157,243.874,157,242.844,157C241.815,157,240.785,157,239.756,157C238.726,157,237.696,157,236.667,157C235.637,157,234.607,157,233.578,157C232.548,157,231.519,157,230.489,157C229.459,157,228.43,157,227.4,157C226.37,157,225.341,157,224.311,157C223.281,157,222.252,157,221.222,157C220.193,157,219.163,157,218.133,157C217.104,157,216.074,157,215.044,157C214.015,157,212.985,157,211.956,157C210.926,157,209.896,157,208.867,157C207.837,157,206.807,157,205.778,157C204.748,157,203.719,157,202.689,157C201.659,157,200.63,157,199.6,157C198.57,157,197.541,157,196.511,157C195.481,157,194.452,157,193.422,157C192.393,157,191.363,157,190.333,157C189.304,157,188.274,157,187.244,157C186.215,157,185.185,157,184.156,157C183.126,157,182.096,157,181.067,157C180.037,157,179.007,157,177.978,157C176.948,157,175.919,157,174.889,157C173.859,157,172.83,157,171.8,157C170.77,157,169.741,157,168.711,157C167.681,157,166.652,157,165.622,157C164.593,157,163.563,157,162.533,157C161.504,157,160.474,157,159.444,157C158.415,157,157.385,157,156.356,157C155.326,157,154.296,157,153.267,157C152.237,157,151.207,157,150.178,157C149.148,157,148.119,157,147.089,157C146.059,157,145.03,157,144,157C142.97,157,141.941,157,140.911,157C139.881,157,138.852,157,137.822,157C136.793,157,135.763,157,134.733,157C133.704,157,132.674,157,131.644,157C130.615,157,129.585,157,128.556,157C127.526,157,126.496,157,125.467,157C124.437,157,123.407,157,122.378,157C121.348,157,120.319,157,119.289,157C118.259,157,117.23,157,116.2,157C115.17,157,114.141,157,113.111,157C112.081,157,111.052,157,110.022,157C108.993,157,107.963,157,106.933,157C105.904,157,104.874,157,103.844,157C102.815,157,101.785,157,100.756,157C99.726,157,98.696,157,97.667,157C96.637,157,95.607,157,94.578,157C93.548,157,92.519,157,91.489,157C90.459,157,89.43,157,88.4,157C87.37,157,86.341,157,85.311,157C84.281,157,83.252,157,82.222,157C81.193,157,80.163,157,79.133,157C78.104,157,77.074,157,76.044,157C75.015,157,73.985,157,72.956,157C71.926,157,70.896,157,69.867,157C68.837,157,67.807,157,66.778,157C65.748,157,64.719,157,63.689,157C62.659,157,61.63,157,60.6,157C59.57,157,58.541,157,57.511,157C56.481,157,55.452,157,54.422,157C53.393,157,52.363,157,51.333,157C50.304,157,49.274,157,48.244,157C47.215,157,46.185,157,45.156,157C44.126,157,43.096,157,42.067,157C41.037,157,40.007,157,38.978,157C37.948,157,36.919,157,35.889,157C34.859,157,33.83,157,32.8,157C31.77,157,30.741,157,29.711,157C28.681,157,27.652,157,26.622,157C25.593,157,24.563,157,23.533,157C22.504,157,21.474,157,20.444,157C19.415,157,18.385,157,17.356,157C16.326,157,15.296,157,14.267,157C13.237,157,12.207,157,11.178,157C10.148,157,9.119,157,8.089,157C7.059,157,6.03,157,5,157Z" vector-effect="non-scaling-stroke"/><path data-ts-key="visitor-areas:string:7:desktop:segment:0" fill="url(#fill-desktop)" fill-opacity="0.6" stroke="var(--sd-primary, var(--ts-chart-1, #171717))" stroke-width="1" d="M5,109.88C6.03,114.43,7.059,118.979,8.089,121.913C9.119,124.848,10.148,126.166,11.178,120.647C12.207,115.127,13.237,102.769,14.267,93.413C15.296,84.058,16.326,77.705,17.356,73.02C18.385,68.335,19.415,65.318,20.444,75.807C21.474,86.295,22.504,110.289,23.533,103.167C24.563,96.044,25.593,57.805,26.622,64.66C27.652,71.515,28.681,123.463,29.711,135.593C30.741,147.724,31.77,120.036,32.8,99.873C33.83,79.71,34.859,67.072,35.889,71.247C36.919,75.422,37.948,96.41,38.978,93.413C40.007,90.416,41.037,63.433,42.067,65.547C43.096,67.66,44.126,98.871,45.156,111.78C46.185,124.689,47.215,119.298,48.244,120.267C49.274,121.235,50.304,128.563,51.333,115.453C52.363,102.343,53.393,68.795,54.422,54.907C55.452,41.018,56.481,46.789,57.511,58.96C58.541,71.131,59.57,89.701,60.6,103.42C61.63,117.139,62.659,126.008,63.689,126.727C64.719,127.446,65.748,120.015,66.778,114.313C67.807,108.611,68.837,104.638,69.867,107.093C70.896,109.549,71.926,118.432,72.956,110.387C73.985,102.341,75.015,77.366,76.044,71.247C77.074,65.127,78.104,77.863,79.133,98.1C80.163,118.337,81.193,146.075,82.222,131.033C83.252,115.991,84.281,58.17,85.311,55.287C86.341,52.404,87.37,104.46,88.4,118.747C89.43,133.034,90.459,109.551,91.489,86.7C92.519,63.849,93.548,41.628,94.578,51.36C95.607,61.092,96.637,102.775,97.667,108.233C98.696,113.691,99.726,82.923,100.756,80.62C101.785,78.317,102.815,104.477,103.844,101.647C104.874,98.816,105.904,66.993,106.933,55.033C107.963,43.073,108.993,50.976,110.022,46.673C111.052,42.371,112.081,25.865,113.111,28.053C114.141,30.242,115.17,51.126,116.2,69.853C117.23,88.58,118.259,105.15,119.289,111.527C120.319,117.903,121.348,114.085,122.378,105.447C123.407,96.808,124.437,83.349,125.467,78.087C126.496,72.824,127.526,75.759,128.556,80.367C129.585,84.975,130.615,91.257,131.644,101.647C132.674,112.037,133.704,126.535,134.733,111.78C135.763,97.025,136.793,53.017,137.822,38.187C138.852,23.356,139.881,37.703,140.911,48.953C141.941,60.204,142.97,68.358,144,63.52C145.03,58.682,146.059,40.853,147.089,40.593C148.119,40.333,149.148,57.643,150.178,72.767C151.207,87.891,152.237,100.83,153.267,104.433C154.296,108.037,155.326,102.305,156.356,105.447C157.385,108.588,158.415,120.602,159.444,128.88C160.474,137.158,161.504,141.701,162.533,131.54C163.563,121.379,164.593,96.516,165.622,88.347C166.652,80.178,167.681,88.703,168.711,91.893C169.741,95.083,170.77,92.937,171.8,99.873C172.83,106.81,173.859,122.828,174.889,108.487C175.919,94.145,176.948,49.443,177.978,45.533C179.007,41.623,180.037,78.505,181.067,103.42C182.096,128.335,183.126,141.282,184.156,130.653C185.185,120.024,186.215,85.819,187.244,78.467C188.274,71.115,189.304,90.616,190.333,105.32C191.363,120.024,192.393,129.931,193.422,109.12C194.452,88.309,195.481,36.78,196.511,45.533C197.541,54.287,198.57,123.322,199.6,123.687C200.63,124.051,201.659,55.744,202.689,53.26C203.719,50.776,204.748,114.115,205.778,128.12C206.807,142.125,207.837,106.797,208.867,88.093C209.896,69.39,210.926,67.311,211.956,69.22C212.985,71.129,214.015,77.026,215.044,67.7C216.074,58.374,217.104,33.825,218.133,40.72C219.163,47.615,220.193,85.954,221.222,112.033C222.252,138.112,223.281,151.931,224.311,126.347C225.341,100.763,226.37,35.777,227.4,41.48C228.43,47.183,229.459,123.577,230.489,130.273C231.519,136.97,232.548,73.97,233.578,54.907C234.607,35.843,235.637,60.717,236.667,73.78C237.696,86.843,238.726,88.097,239.756,70.74C240.785,53.383,241.815,17.417,242.844,30.967C243.874,44.516,244.904,107.583,245.933,121.913C246.963,136.244,247.993,101.84,249.022,77.073C250.052,52.307,251.081,37.179,252.111,48.32C253.141,59.461,254.17,96.872,255.2,108.993C256.23,121.115,257.259,107.948,258.289,82.647C259.319,57.345,260.348,19.909,261.378,29.067C262.407,38.225,263.437,93.977,264.467,117.48C265.496,140.983,266.526,132.237,267.556,115.073C268.585,97.91,269.615,72.33,270.644,53.893C271.674,35.457,272.704,24.164,273.733,38.187C274.763,52.209,275.793,91.547,276.822,112.793C277.852,134.04,278.881,137.194,279.911,123.687C280.941,110.179,281.97,80.01,283,49.84L283,106.333C281.97,118.571,280.941,130.809,279.911,136.733C278.881,142.657,277.852,142.268,276.822,131.667C275.793,121.066,274.763,100.253,273.733,94.933C272.704,89.613,271.674,99.785,270.644,108.867C269.615,117.948,268.585,125.938,267.556,132.933C266.526,139.928,265.496,145.928,264.467,134.2C263.437,122.472,262.407,93.018,261.378,89.867C260.348,86.715,259.319,109.867,258.289,122.8C257.259,135.733,256.23,138.449,255.2,130.4C254.17,122.351,253.141,103.538,252.111,100C251.081,96.462,250.052,108.199,249.022,120.267C247.993,132.335,246.963,144.734,245.933,135.467C244.904,126.199,243.874,95.264,242.844,91.133C241.815,87.002,240.785,109.675,239.756,117.733C238.726,125.791,237.696,119.235,236.667,112.667C235.637,106.099,234.607,99.519,233.578,108.867C232.548,118.214,231.519,143.488,230.489,140.533C229.459,137.578,228.43,106.394,227.4,103.8C226.37,101.206,225.341,127.201,224.311,138C223.281,148.799,222.252,144.401,221.222,131.667C220.193,118.933,219.163,97.863,218.133,96.2C217.104,94.537,216.074,112.282,215.044,116.467C214.015,120.651,212.985,111.275,211.956,110.133C210.926,108.992,209.896,116.085,208.867,125.333C207.837,134.582,206.807,145.986,205.778,139.267C204.748,132.547,203.719,107.704,202.689,108.867C201.659,110.03,200.63,137.199,199.6,136.733C198.57,136.267,197.541,108.166,196.511,105.067C195.481,101.967,194.452,123.87,193.422,131.667C192.393,139.463,191.363,133.152,190.333,127.867C189.304,122.581,188.274,118.32,187.244,121.533C186.215,124.746,185.185,135.433,184.156,140.533C183.126,145.634,182.096,145.147,181.067,132.933C180.037,120.719,179.007,96.778,177.978,98.733C176.948,100.688,175.919,128.54,174.889,135.467C173.859,142.393,172.83,128.395,171.8,125.333C170.77,122.272,169.741,130.147,168.711,129.133C167.681,128.12,166.652,118.218,165.622,120.267C164.593,122.316,163.563,136.315,162.533,141.8C161.504,147.285,160.474,144.254,159.444,139.267C158.415,134.279,157.385,127.336,156.356,127.867C155.326,128.398,154.296,136.403,153.267,134.2C152.237,131.997,151.207,119.585,150.178,112.667C149.148,105.748,148.119,104.322,147.089,103.8C146.059,103.278,145.03,103.659,144,106.333C142.97,109.008,141.941,113.976,140.911,108.867C139.881,103.757,138.852,88.571,137.822,94.933C136.793,101.296,135.763,129.208,134.733,136.733C133.704,144.259,132.674,131.398,131.644,126.6C130.615,121.802,129.585,125.066,128.556,122.8C127.526,120.534,126.496,112.738,125.467,115.2C124.437,117.662,123.407,130.383,122.378,134.2C121.348,138.017,120.319,132.931,119.289,130.4C118.259,127.869,117.23,127.892,116.2,119C115.17,110.108,114.141,92.302,113.111,91.133C112.081,89.964,111.052,105.432,110.022,107.6C108.993,109.768,107.963,98.636,106.933,103.8C105.904,108.964,104.874,130.425,103.844,132.933C102.815,135.442,101.785,118.998,100.756,117.733C99.726,116.469,98.696,130.385,97.667,129.133C96.637,127.882,95.607,111.463,94.578,108.867C93.548,106.27,92.519,117.496,91.489,126.6C90.459,135.704,89.43,142.686,88.4,134.2C87.37,125.714,86.341,101.758,85.311,103.8C84.281,105.842,83.252,133.88,82.222,140.533C81.193,147.187,80.163,132.456,79.133,125.333C78.104,118.211,77.074,118.698,76.044,120.267C75.015,121.835,73.985,124.486,72.956,127.867C71.926,131.247,70.896,135.357,69.867,135.467C68.837,135.576,67.807,131.685,66.778,131.667C65.748,131.648,64.719,135.502,63.689,138C62.659,140.498,61.63,141.64,60.6,134.2C59.57,126.76,58.541,110.737,57.511,105.067C56.481,99.396,55.452,104.078,54.422,111.4C53.393,118.722,52.363,128.684,51.333,132.933C50.304,137.182,49.274,135.718,48.244,135.467C47.215,135.215,46.185,136.177,45.156,129.133C44.126,122.089,43.096,107.04,42.067,108.867C41.037,110.693,40.007,129.396,38.978,130.4C37.948,131.404,36.919,114.708,35.889,112.667C34.859,110.625,33.83,123.237,32.8,132.933C31.77,142.63,30.741,149.41,29.711,143.067C28.681,136.723,27.652,117.256,26.622,116.467C25.593,115.678,24.563,133.567,23.533,134.2C22.504,134.833,21.474,118.211,20.444,113.933C19.415,109.656,18.385,117.724,17.356,120.267C16.326,122.809,15.296,119.825,14.267,124.067C13.237,128.308,12.207,139.775,11.178,141.8C10.148,143.825,9.119,136.407,8.089,134.2C7.059,131.993,6.03,134.996,5,138Z" vector-effect="non-scaling-stroke"/></g></g></svg>
