<svg xmlns="http://www.w3.org/2000/svg" class="ts-chart" width="100%" height="100%" viewBox="0 0 288 192" role="img" aria-roledescription="chart" aria-label="Radar Chart - Lines Only implemented with TanStack Charts" tabindex="-1" style="display:block;overflow:visible"><style data-tanstack-catalog-preview-theme="">:root{color-scheme:light;font-family:Inter,ui-sans-serif,system-ui,-apple-system,BlinkMacSystemFont,'Segoe UI',sans-serif;color:#172033;--panel:#ffffff;--panel-muted:#f7f8fb;--border:#dce1ea;--muted:#697386;--accent:#2563eb;--accent-muted:#e9f0ff;--ts-chart-1:#2563eb;--ts-chart-2:#f97316;--ts-chart-3:#10b981;--ts-chart-4:#8b5cf6;--ts-chart-5:#ec4899;--ts-chart-6:#06b6d4;}@media(prefers-color-scheme:dark){:root{color-scheme:dark;color:#edf2fb;--panel:#151a24;--panel-muted:#10151e;--border:#2b3342;--muted:#9aa6b9;--accent:#6ea8fe;--accent-muted:#172746;--ts-chart-1:#6ea8fe;--ts-chart-2:#ff9b65;--ts-chart-3:#4fd1a1;--ts-chart-4:#ae8cff;--ts-chart-5:#f679bc;--ts-chart-6:#4fd4e7;}}</style><g data-ts-key="marks" class="ts-chart__marks"><g data-ts-key="polar-0" class="ts-chart__polar" aria-hidden="true" transform="translate(144 96)"><g data-ts-key="polar-0:radial-grid-0" class="ts-chart__radial-grid" aria-hidden="true"><path data-ts-key="ring:number:55" fill="none" stroke="var(--border)" stroke-opacity="1" stroke-width="1" d="M0,-18.24L15.796,-9.12L15.796,9.12L0,18.24L-15.796,9.12L-15.796,-9.12Z" vector-effect="non-scaling-stroke"/><path data-ts-key="ring:number:110" fill="none" stroke="var(--border)" stroke-opacity="1" stroke-width="1" d="M0,-36.48L31.593,-18.24L31.593,18.24L0,36.48L-31.593,18.24L-31.593,-18.24Z" vector-effect="non-scaling-stroke"/><path data-ts-key="ring:number:165" fill="none" stroke="var(--border)" stroke-opacity="1" stroke-width="1" d="M0,-54.72L47.389,-27.36L47.389,27.36L0,54.72L-47.389,27.36L-47.389,-27.36Z" vector-effect="non-scaling-stroke"/><path data-ts-key="ring:number:220" fill="none" stroke="var(--border)" stroke-opacity="1" stroke-width="1" d="M0,-72.96L63.185,-36.48L63.185,36.48L0,72.96L-63.185,36.48L-63.185,-36.48Z" vector-effect="non-scaling-stroke"/></g><g data-ts-key="polar-0:angle-grid-1" class="ts-chart__angle-grid" aria-hidden="true"><line data-ts-key="spoke:string:7:January" stroke="transparent" stroke-opacity="1" stroke-width="1" x1="0" y1="0" x2="0" y2="-72.96"/><line data-ts-key="spoke:string:8:February" stroke="transparent" stroke-opacity="1" stroke-width="1" x1="0" y1="0" x2="63.19" y2="-36.48"/><line data-ts-key="spoke:string:5:March" stroke="transparent" stroke-opacity="1" stroke-width="1" x1="0" y1="0" x2="63.19" y2="36.48"/><line data-ts-key="spoke:string:5:April" stroke="transparent" stroke-opacity="1" stroke-width="1" x1="0" y1="0" x2="0" y2="72.96"/><line data-ts-key="spoke:string:3:May" stroke="transparent" stroke-opacity="1" stroke-width="1" x1="0" y1="0" x2="-63.19" y2="36.48"/><line data-ts-key="spoke:string:4:June" stroke="transparent" stroke-opacity="1" stroke-width="1" x1="0" y1="0" x2="-63.19" y2="-36.48"/></g><g data-ts-key="desktop-radar" class="ts-chart__radial-area ts-chart__radar" aria-hidden="true"><path data-ts-key="desktop-radar:string:7:desktop" fill="var(--chart-1, var(--ts-chart-1))" fill-opacity="0" stroke="var(--chart-1, var(--ts-chart-1))" stroke-opacity="1" stroke-width="2" stroke-linejoin="round" d="M0,-61.684L53.133,-30.676L59.452,34.324L0,57.373L-45.953,26.531L-49.974,-28.852ZM0,0L0,0L0,0L0,0L0,0L0,0Z" vector-effect="non-scaling-stroke"/></g><g data-ts-key="mobile-radar" class="ts-chart__radial-area ts-chart__radar" aria-hidden="true"><path data-ts-key="mobile-radar:string:6:mobile" fill="var(--chart-2, var(--ts-chart-2))" fill-opacity="0" stroke="var(--chart-2, var(--ts-chart-2))" stroke-width="2" stroke-linejoin="round" d="M0,-53.062L48.825,-28.189L51.697,29.847L0,53.062L-54.569,31.505L-58.59,-33.827ZM0,0L0,0L0,0L0,0L0,0L0,0Z" vector-effect="non-scaling-stroke"/></g><g data-ts-key="polar-0:angle-grid-1:labels" class="ts-chart__text" aria-hidden="true"><text data-ts-key="angle-label:string:7:January" fill="var(--muted-foreground)" x="0" y="-82.96" text-anchor="middle" dominant-baseline="auto" transform="rotate(0 0 -82.96)" font-size="12" font-family="inherit">January</text><text data-ts-key="angle-label:string:8:February" fill="var(--muted-foreground)" x="71.85" y="-41.48" text-anchor="start" dominant-baseline="auto" transform="rotate(0 71.85 -41.48)" font-size="12" font-family="inherit">February</text><text data-ts-key="angle-label:string:5:March" fill="var(--muted-foreground)" x="71.85" y="41.48" text-anchor="start" dominant-baseline="hanging" transform="rotate(0 71.85 41.48)" font-size="12" font-family="inherit">March</text><text data-ts-key="angle-label:string:5:April" fill="var(--muted-foreground)" x="0" y="82.96" text-anchor="middle" dominant-baseline="hanging" transform="rotate(0 0 82.96)" font-size="12" font-family="inherit">April</text><text data-ts-key="angle-label:string:3:May" fill="var(--muted-foreground)" x="-71.85" y="41.48" text-anchor="end" dominant-baseline="hanging" transform="rotate(0 -71.85 41.48)" font-size="12" font-family="inherit">May</text><text data-ts-key="angle-label:string:4:June" fill="var(--muted-foreground)" x="-71.85" y="-41.48" text-anchor="end" dominant-baseline="auto" transform="rotate(0 -71.85 -41.48)" font-size="12" font-family="inherit">June</text></g></g></g></svg>
