<svg xmlns="http://www.w3.org/2000/svg" class="ts-chart" width="100%" height="100%" viewBox="0 0 288 192" role="img" aria-roledescription="chart" aria-label="Radial Chart - Grid implemented with TanStack Charts" tabindex="-1" style="display:block;overflow:visible"><style data-tanstack-catalog-preview-theme="">:root{color-scheme:light;font-family:Inter,ui-sans-serif,system-ui,-apple-system,BlinkMacSystemFont,'Segoe UI',sans-serif;color:#172033;--panel:#ffffff;--panel-muted:#f7f8fb;--background:#ffffff;--foreground:#172033;--border:#dce1ea;--muted:#f7f8fb;--muted-foreground:#697386;--accent:#2563eb;--accent-muted:#e9f0ff;--ts-chart-1:#2563eb;--ts-chart-2:#f97316;--ts-chart-3:#10b981;--ts-chart-4:#8b5cf6;--ts-chart-5:#ec4899;--ts-chart-6:#06b6d4;}@media(prefers-color-scheme:dark){:root{color-scheme:dark;color:#edf2fb;--panel:#151a24;--panel-muted:#10151e;--background:#151a24;--foreground:#edf2fb;--border:#2b3342;--muted:#10151e;--muted-foreground:#9aa6b9;--accent:#6ea8fe;--accent-muted:#172746;--ts-chart-1:#6ea8fe;--ts-chart-2:#ff9b65;--ts-chart-3:#4fd1a1;--ts-chart-4:#ae8cff;--ts-chart-5:#f679bc;--ts-chart-6:#4fd4e7;}}</style><g data-ts-key="marks" class="ts-chart__marks"><g data-ts-key="polar-0" class="ts-chart__polar" aria-hidden="true" transform="translate(144 96)"><g data-ts-key="polar-0:radial-grid-0" class="ts-chart__radial-grid" aria-hidden="true"><path data-ts-key="ring:string:6:chrome" fill="none" stroke="var(--border)" stroke-width="1" d="M0,-35.833A35.833,35.833,0,1,1,0,35.833A35.833,35.833,0,1,1,0,-35.833Z" vector-effect="non-scaling-stroke"/><path data-ts-key="ring:string:6:safari" fill="none" stroke="var(--border)" stroke-width="1" d="M0,-50.417A50.417,50.417,0,1,1,0,50.417A50.417,50.417,0,1,1,0,-50.417Z" vector-effect="non-scaling-stroke"/><path data-ts-key="ring:string:7:firefox" fill="none" stroke="var(--border)" stroke-width="1" d="M0,-65A65,65,0,1,1,0,65A65,65,0,1,1,0,-65Z" vector-effect="non-scaling-stroke"/><path data-ts-key="ring:string:4:edge" fill="none" stroke="var(--border)" stroke-width="1" d="M0,-79.583A79.583,79.583,0,1,1,0,79.583A79.583,79.583,0,1,1,0,-79.583Z" vector-effect="non-scaling-stroke"/><path data-ts-key="ring:string:5:other" fill="none" stroke="var(--border)" stroke-width="1" d="M0,-94.167A94.167,94.167,0,1,1,0,94.167A94.167,94.167,0,1,1,0,-94.167Z" vector-effect="non-scaling-stroke"/></g><g data-ts-key="polar-0:angle-grid-1" class="ts-chart__angle-grid" aria-hidden="true"><line data-ts-key="spoke:number:0" stroke="var(--border)" stroke-width="1" x1="0" y1="0" x2="76.8" y2="0"/><line data-ts-key="spoke:number:25" stroke="var(--border)" stroke-width="1" x1="0" y1="0" x2="66.51" y2="-38.4"/><line data-ts-key="spoke:number:50" stroke="var(--border)" stroke-width="1" x1="0" y1="0" x2="38.4" y2="-66.51"/><line data-ts-key="spoke:number:75" stroke="var(--border)" stroke-width="1" x1="0" y1="0" x2="0" y2="-76.8"/><line data-ts-key="spoke:number:100" stroke="var(--border)" stroke-width="1" x1="0" y1="0" x2="-38.4" y2="-66.51"/><line data-ts-key="spoke:number:125" stroke="var(--border)" stroke-width="1" x1="0" y1="0" x2="-66.51" y2="-38.4"/><line data-ts-key="spoke:number:150" stroke="var(--border)" stroke-width="1" x1="0" y1="0" x2="-76.8" y2="0"/><line data-ts-key="spoke:number:175" stroke="var(--border)" stroke-width="1" x1="0" y1="0" x2="-66.51" y2="38.4"/><line data-ts-key="spoke:number:200" stroke="var(--border)" stroke-width="1" x1="0" y1="0" x2="-38.4" y2="66.51"/><line data-ts-key="spoke:number:225" stroke="var(--border)" stroke-width="1" x1="0" y1="0" x2="0" y2="76.8"/><line data-ts-key="spoke:number:250" stroke="var(--border)" stroke-width="1" x1="0" y1="0" x2="38.4" y2="66.51"/><line data-ts-key="spoke:number:275" stroke="var(--border)" stroke-width="1" x1="0" y1="0" x2="66.51" y2="38.4"/></g><g data-ts-key="radial-values" class="ts-chart__arc ts-chart__bar ts-chart__radial-bar ts-chart__radial-bar-angle" aria-hidden="true"><path data-ts-key="radial-values:object:null:string:6:chrome" fill="var(--chart-1, var(--ts-chart-1))" stroke-linejoin="round" d="M41.667,0A41.667,41.667,0,1,0,36.084,20.833L25.981,15A30,30,0,1,1,30,0Z" vector-effect="non-scaling-stroke"/><path data-ts-key="radial-values:object:null:string:6:safari" fill="var(--chart-2, var(--ts-chart-2))" stroke-linejoin="round" d="M56.25,0A56.25,56.25,0,1,0,-28.125,48.714L-22.292,38.61A44.583,44.583,0,1,1,44.583,0Z" vector-effect="non-scaling-stroke"/><path data-ts-key="radial-values:object:null:string:7:firefox" fill="var(--chart-3, var(--ts-chart-3))" stroke-linejoin="round" d="M70.833,0A70.833,70.833,0,1,0,-50.608,49.559L-42.273,41.397A59.167,59.167,0,1,1,59.167,0Z" vector-effect="non-scaling-stroke"/><path data-ts-key="radial-values:object:null:string:4:edge" fill="var(--chart-4, var(--ts-chart-4))" stroke-linejoin="round" d="M85.417,0A85.417,85.417,0,1,0,-75.697,39.573L-65.358,34.168A73.75,73.75,0,1,1,73.75,0Z" vector-effect="non-scaling-stroke"/><path data-ts-key="radial-values:object:null:string:5:other" fill="var(--chart-5, var(--ts-chart-5))" stroke-linejoin="round" d="M100,0A100,100,0,0,0,-30.902,-95.106L-27.297,-84.01A88.333,88.333,0,0,1,88.333,0Z" vector-effect="non-scaling-stroke"/></g></g></g></svg>
