<svg xmlns="http://www.w3.org/2000/svg" class="ts-chart" width="100%" height="100%" viewBox="0 0 288 192" role="img" aria-roledescription="chart" aria-label="English letter frequency donut" tabindex="-1" style="display:block;overflow:visible"><style data-tanstack-catalog-preview-theme="">:root{color-scheme:light;font-family:Inter,ui-sans-serif,system-ui,-apple-system,BlinkMacSystemFont,'Segoe UI',sans-serif;color:#172033;--panel:#ffffff;--panel-muted:#f7f8fb;--border:#dce1ea;--muted:#697386;--accent:#2563eb;--accent-muted:#e9f0ff;--ts-chart-1:#2563eb;--ts-chart-2:#f97316;--ts-chart-3:#10b981;--ts-chart-4:#8b5cf6;--ts-chart-5:#ec4899;--ts-chart-6:#06b6d4;}@media(prefers-color-scheme:dark){:root{color-scheme:dark;color:#edf2fb;--panel:#151a24;--panel-muted:#10151e;--border:#2b3342;--muted:#9aa6b9;--accent:#6ea8fe;--accent-muted:#172746;--ts-chart-1:#6ea8fe;--ts-chart-2:#ff9b65;--ts-chart-3:#4fd1a1;--ts-chart-4:#ae8cff;--ts-chart-5:#f679bc;--ts-chart-6:#4fd4e7;}}</style><g data-ts-key="marks" class="ts-chart__marks"><g data-ts-key="polar-0" class="ts-chart__polar" aria-hidden="true" transform="translate(144 96)"><g data-ts-key="letter-slices" class="ts-chart__arc" aria-hidden="true"><path data-ts-key="letter-slices:object:null:string:1:E" fill="#0ea5e9" stroke-linejoin="round" d="M0,-76.8A76.8,76.8,0,0,1,74.833,17.268L43.403,10.016A44.544,44.544,0,0,0,0,-44.544Z" vector-effect="non-scaling-stroke"/><path data-ts-key="letter-slices:object:null:string:1:T" fill="#6366f1" stroke-linejoin="round" d="M74.833,17.268A76.8,76.8,0,0,1,4.79,76.65L2.778,44.457A44.544,44.544,0,0,0,43.403,10.016Z" vector-effect="non-scaling-stroke"/><path data-ts-key="letter-slices:object:null:string:1:A" fill="#a855f7" stroke-linejoin="round" d="M4.79,76.65A76.8,76.8,0,0,1,-68.213,35.289L-39.563,20.467A44.544,44.544,0,0,0,2.778,44.457Z" vector-effect="non-scaling-stroke"/><path data-ts-key="letter-slices:object:null:string:1:O" fill="#ec4899" stroke-linejoin="round" d="M-68.213,35.289A76.8,76.8,0,0,1,-64.03,-42.407L-37.138,-24.596A44.544,44.544,0,0,0,-39.563,20.467Z" vector-effect="non-scaling-stroke"/><path data-ts-key="letter-slices:object:null:string:1:I" fill="#f97316" stroke-linejoin="round" d="M-64.03,-42.407A76.8,76.8,0,0,1,0,-76.8L0,-44.544A44.544,44.544,0,0,0,-37.138,-24.596Z" vector-effect="non-scaling-stroke"/></g></g></g></svg>
