<svg xmlns="http://www.w3.org/2000/svg" class="ts-chart" width="100%" height="100%" viewBox="0 0 288 192" role="img" aria-roledescription="chart" aria-label="English letter frequency rose" tabindex="-1" style="display:block;overflow:visible"><style data-tanstack-catalog-preview-theme="">:root{color-scheme:light;font-family:Inter,ui-sans-serif,system-ui,-apple-system,BlinkMacSystemFont,'Segoe UI',sans-serif;color:#172033;--panel:#ffffff;--panel-muted:#f7f8fb;--border:#dce1ea;--muted:#697386;--accent:#2563eb;--accent-muted:#e9f0ff;--ts-chart-1:#2563eb;--ts-chart-2:#f97316;--ts-chart-3:#10b981;--ts-chart-4:#8b5cf6;--ts-chart-5:#ec4899;--ts-chart-6:#06b6d4;}@media(prefers-color-scheme:dark){:root{color-scheme:dark;color:#edf2fb;--panel:#151a24;--panel-muted:#10151e;--border:#2b3342;--muted:#9aa6b9;--accent:#6ea8fe;--accent-muted:#172746;--ts-chart-1:#6ea8fe;--ts-chart-2:#ff9b65;--ts-chart-3:#4fd1a1;--ts-chart-4:#ae8cff;--ts-chart-5:#f679bc;--ts-chart-6:#4fd4e7;}}</style><g data-ts-key="marks" class="ts-chart__marks"><g data-ts-key="polar-0" class="ts-chart__polar" aria-hidden="true" transform="translate(144 96)"><g data-ts-key="letter-bars" class="ts-chart__arc ts-chart__bar ts-chart__radial-bar ts-chart__radial-bar-radius" aria-hidden="true"><path data-ts-key="letter-bars:object:null:string:1:E" fill="#0369a1" stroke="#ffffff" stroke-width="1" stroke-linejoin="round" d="M0,-76.8A76.8,76.8,0,0,1,66.511,-38.4L0,0Z" vector-effect="non-scaling-stroke"/><path data-ts-key="letter-bars:object:null:string:1:T" fill="#2563eb" stroke="#ffffff" stroke-width="1" stroke-linejoin="round" d="M53.147,-30.684A61.369,61.369,0,0,1,53.147,30.684L0,0Z" vector-effect="non-scaling-stroke"/><path data-ts-key="letter-bars:object:null:string:1:A" fill="#4f46e5" stroke="#ffffff" stroke-width="1" stroke-linejoin="round" d="M49.888,28.803A57.606,57.606,0,0,1,0,57.606L0,0Z" vector-effect="non-scaling-stroke"/><path data-ts-key="letter-bars:object:null:string:1:O" fill="#7c3aed" stroke="#ffffff" stroke-width="1" stroke-linejoin="round" d="M0,54.813A54.813,54.813,0,0,1,-47.469,27.406L0,0Z" vector-effect="non-scaling-stroke"/><path data-ts-key="letter-bars:object:null:string:1:I" fill="#c026d3" stroke="#ffffff" stroke-width="1" stroke-linejoin="round" d="M-45.486,26.261A52.523,52.523,0,0,1,-45.486,-26.261L0,0Z" vector-effect="non-scaling-stroke"/><path data-ts-key="letter-bars:object:null:string:1:N" fill="#db2777" stroke="#ffffff" stroke-width="1" stroke-linejoin="round" d="M-44.691,-25.802A51.604,51.604,0,0,1,0,-51.604L0,0Z" vector-effect="non-scaling-stroke"/></g></g></g></svg>
